<mxfile host="app.diagrams.net" agent="Mozilla/5.0 (Windows NT 10.0; Win64; x64) AppleWebKit/537.36 (KHTML, like Gecko) Chrome/134.0.0.0 Safari/537.36" version="26.1.1" pages="5">
  <diagram name="Página-1" id="my2UPSMnPxshMm7SaJnZ">
    <mxGraphModel dx="880" dy="468" grid="1" gridSize="10" guides="1" tooltips="1" connect="1" arrows="1" fold="1" page="1" pageScale="1" pageWidth="827" pageHeight="1169" math="0" shadow="0">
      <root>
        <mxCell id="0" />
        <mxCell id="1" parent="0" />
        <mxCell id="Jn-jRF7GOdgwvfsBNc8g-2" value="Navegar na&lt;div&gt;&amp;nbsp;biblioteca&lt;/div&gt;" style="ellipse;whiteSpace=wrap;html=1;fillColor=#dae8fc;strokeColor=#6c8ebf;" vertex="1" parent="1">
          <mxGeometry x="294" y="40" width="120" height="80" as="geometry" />
        </mxCell>
        <mxCell id="Jn-jRF7GOdgwvfsBNc8g-3" value="Pesquisar&lt;div&gt;conteúdo&lt;/div&gt;" style="ellipse;whiteSpace=wrap;html=1;fillColor=#dae8fc;strokeColor=#6c8ebf;" vertex="1" parent="1">
          <mxGeometry x="294" y="130" width="120" height="80" as="geometry" />
        </mxCell>
        <mxCell id="Jn-jRF7GOdgwvfsBNc8g-4" value="Transmitir vídeo" style="ellipse;whiteSpace=wrap;html=1;fillColor=#dae8fc;strokeColor=#6c8ebf;" vertex="1" parent="1">
          <mxGeometry x="294" y="220" width="120" height="80" as="geometry" />
        </mxCell>
        <mxCell id="Jn-jRF7GOdgwvfsBNc8g-5" value="Criar lista de&amp;nbsp;&lt;div&gt;reprodução&lt;/div&gt;" style="ellipse;whiteSpace=wrap;html=1;fillColor=#dae8fc;strokeColor=#6c8ebf;" vertex="1" parent="1">
          <mxGeometry x="300" y="320" width="120" height="80" as="geometry" />
        </mxCell>
        <mxCell id="Jn-jRF7GOdgwvfsBNc8g-6" value="Usuário" style="shape=umlActor;verticalLabelPosition=bottom;verticalAlign=top;html=1;outlineConnect=0;" vertex="1" parent="1">
          <mxGeometry x="10" y="160" width="40" height="80" as="geometry" />
        </mxCell>
        <mxCell id="Jn-jRF7GOdgwvfsBNc8g-9" value="" style="endArrow=none;html=1;rounded=0;entryX=0;entryY=0.5;entryDx=0;entryDy=0;exitX=1;exitY=0.3333333333333333;exitDx=0;exitDy=0;exitPerimeter=0;" edge="1" parent="1" source="Jn-jRF7GOdgwvfsBNc8g-6" target="Jn-jRF7GOdgwvfsBNc8g-2">
          <mxGeometry width="50" height="50" relative="1" as="geometry">
            <mxPoint x="40" y="220" as="sourcePoint" />
            <mxPoint x="120" y="180" as="targetPoint" />
          </mxGeometry>
        </mxCell>
        <mxCell id="Jn-jRF7GOdgwvfsBNc8g-12" value="" style="endArrow=none;html=1;rounded=0;entryX=0;entryY=0.5;entryDx=0;entryDy=0;exitX=1;exitY=0.3333333333333333;exitDx=0;exitDy=0;exitPerimeter=0;" edge="1" parent="1" source="Jn-jRF7GOdgwvfsBNc8g-6" target="Jn-jRF7GOdgwvfsBNc8g-4">
          <mxGeometry width="50" height="50" relative="1" as="geometry">
            <mxPoint x="50" y="220" as="sourcePoint" />
            <mxPoint x="130" y="220" as="targetPoint" />
          </mxGeometry>
        </mxCell>
        <mxCell id="Jn-jRF7GOdgwvfsBNc8g-13" value="" style="endArrow=none;html=1;rounded=0;exitX=1;exitY=1;exitDx=0;exitDy=0;exitPerimeter=0;entryX=0;entryY=0.5;entryDx=0;entryDy=0;" edge="1" parent="1" source="Jn-jRF7GOdgwvfsBNc8g-6" target="Jn-jRF7GOdgwvfsBNc8g-5">
          <mxGeometry width="50" height="50" relative="1" as="geometry">
            <mxPoint x="70" y="250" as="sourcePoint" />
            <mxPoint x="260" y="360" as="targetPoint" />
          </mxGeometry>
        </mxCell>
        <mxCell id="Jn-jRF7GOdgwvfsBNc8g-14" value="" style="endArrow=none;html=1;rounded=0;exitX=1;exitY=0.5;exitDx=0;exitDy=0;entryX=0;entryY=0.5;entryDx=0;entryDy=0;" edge="1" parent="1" source="Jn-jRF7GOdgwvfsBNc8g-5" target="Jn-jRF7GOdgwvfsBNc8g-15">
          <mxGeometry width="50" height="50" relative="1" as="geometry">
            <mxPoint x="394" y="369.5" as="sourcePoint" />
            <mxPoint x="460" y="369.5" as="targetPoint" />
          </mxGeometry>
        </mxCell>
        <mxCell id="Jn-jRF7GOdgwvfsBNc8g-15" value="Gerenciar conta" style="ellipse;whiteSpace=wrap;html=1;fillColor=#dae8fc;strokeColor=#6c8ebf;" vertex="1" parent="1">
          <mxGeometry x="460" y="320" width="120" height="80" as="geometry" />
        </mxCell>
        <mxCell id="Jn-jRF7GOdgwvfsBNc8g-16" value="" style="endArrow=none;html=1;rounded=0;exitX=0.925;exitY=0.3;exitDx=0;exitDy=0;exitPerimeter=0;entryX=0;entryY=0.3333333333333333;entryDx=0;entryDy=0;entryPerimeter=0;" edge="1" parent="1" source="Jn-jRF7GOdgwvfsBNc8g-5" target="Jn-jRF7GOdgwvfsBNc8g-18">
          <mxGeometry width="50" height="50" relative="1" as="geometry">
            <mxPoint x="390" y="360" as="sourcePoint" />
            <mxPoint x="590" y="220" as="targetPoint" />
          </mxGeometry>
        </mxCell>
        <mxCell id="Jn-jRF7GOdgwvfsBNc8g-17" value="" style="endArrow=none;html=1;rounded=0;exitX=1;exitY=0.5;exitDx=0;exitDy=0;entryX=0;entryY=0.3333333333333333;entryDx=0;entryDy=0;entryPerimeter=0;" edge="1" parent="1" source="Jn-jRF7GOdgwvfsBNc8g-3" target="Jn-jRF7GOdgwvfsBNc8g-18">
          <mxGeometry width="50" height="50" relative="1" as="geometry">
            <mxPoint x="420" y="170" as="sourcePoint" />
            <mxPoint x="610" y="170" as="targetPoint" />
          </mxGeometry>
        </mxCell>
        <mxCell id="Jn-jRF7GOdgwvfsBNc8g-18" value="Administrador" style="shape=umlActor;verticalLabelPosition=bottom;verticalAlign=top;html=1;outlineConnect=0;" vertex="1" parent="1">
          <mxGeometry x="620" y="140" width="40" height="80" as="geometry" />
        </mxCell>
        <mxCell id="Jn-jRF7GOdgwvfsBNc8g-20" value="" style="endArrow=none;html=1;rounded=0;entryX=0;entryY=0.5;entryDx=0;entryDy=0;exitX=1;exitY=0.3333333333333333;exitDx=0;exitDy=0;exitPerimeter=0;" edge="1" parent="1" source="Jn-jRF7GOdgwvfsBNc8g-6" target="Jn-jRF7GOdgwvfsBNc8g-3">
          <mxGeometry width="50" height="50" relative="1" as="geometry">
            <mxPoint x="110" y="200" as="sourcePoint" />
            <mxPoint x="160" y="150" as="targetPoint" />
          </mxGeometry>
        </mxCell>
      </root>
    </mxGraphModel>
  </diagram>
  <diagram id="SBflLorZAtoIqfCc3jxc" name="Página-2">
    <mxGraphModel dx="880" dy="468" grid="1" gridSize="10" guides="1" tooltips="1" connect="1" arrows="1" fold="1" page="1" pageScale="1" pageWidth="827" pageHeight="1169" math="0" shadow="0">
      <root>
        <mxCell id="0" />
        <mxCell id="1" parent="0" />
        <mxCell id="YXJf9fg1VLiG0CaTe0pF-5" value="usuário" style="swimlane;childLayout=stackLayout;horizontal=1;startSize=30;horizontalStack=0;rounded=1;fontSize=14;fontStyle=0;strokeWidth=2;resizeParent=0;resizeLast=1;shadow=0;dashed=0;align=center;arcSize=4;whiteSpace=wrap;html=1;" vertex="1" parent="1">
          <mxGeometry x="310" y="50" width="160" height="70" as="geometry" />
        </mxCell>
        <mxCell id="YXJf9fg1VLiG0CaTe0pF-6" value="+User Id: int&lt;div&gt;+Nome de usuário: String&lt;/div&gt;" style="align=left;strokeColor=none;fillColor=none;spacingLeft=4;spacingRight=4;fontSize=12;verticalAlign=top;resizable=0;rotatable=0;part=1;html=1;whiteSpace=wrap;" vertex="1" parent="YXJf9fg1VLiG0CaTe0pF-5">
          <mxGeometry y="30" width="160" height="40" as="geometry" />
        </mxCell>
        <mxCell id="YXJf9fg1VLiG0CaTe0pF-16" style="edgeStyle=orthogonalEdgeStyle;rounded=0;orthogonalLoop=1;jettySize=auto;html=1;exitX=0.5;exitY=0;exitDx=0;exitDy=0;entryX=0.5;entryY=1;entryDx=0;entryDy=0;" edge="1" parent="1" source="YXJf9fg1VLiG0CaTe0pF-7" target="YXJf9fg1VLiG0CaTe0pF-6">
          <mxGeometry relative="1" as="geometry" />
        </mxCell>
        <mxCell id="YXJf9fg1VLiG0CaTe0pF-7" value="Contente" style="swimlane;childLayout=stackLayout;horizontal=1;startSize=40;horizontalStack=0;rounded=1;fontSize=14;fontStyle=0;strokeWidth=2;resizeParent=0;resizeLast=1;shadow=0;dashed=0;align=center;arcSize=4;whiteSpace=wrap;html=1;" vertex="1" parent="1">
          <mxGeometry x="310" y="160" width="160" height="100" as="geometry" />
        </mxCell>
        <mxCell id="YXJf9fg1VLiG0CaTe0pF-8" value="+ content Id: int&lt;div&gt;+titulo: String&lt;/div&gt;&lt;div&gt;+duração: int&lt;/div&gt;" style="align=left;strokeColor=none;fillColor=none;spacingLeft=4;spacingRight=4;fontSize=12;verticalAlign=top;resizable=0;rotatable=0;part=1;html=1;whiteSpace=wrap;" vertex="1" parent="YXJf9fg1VLiG0CaTe0pF-7">
          <mxGeometry y="40" width="160" height="60" as="geometry" />
        </mxCell>
        <mxCell id="YXJf9fg1VLiG0CaTe0pF-14" style="edgeStyle=orthogonalEdgeStyle;rounded=0;orthogonalLoop=1;jettySize=auto;html=1;exitX=0.5;exitY=1;exitDx=0;exitDy=0;" edge="1" parent="YXJf9fg1VLiG0CaTe0pF-7" source="YXJf9fg1VLiG0CaTe0pF-8" target="YXJf9fg1VLiG0CaTe0pF-8">
          <mxGeometry relative="1" as="geometry" />
        </mxCell>
        <mxCell id="YXJf9fg1VLiG0CaTe0pF-15" style="edgeStyle=orthogonalEdgeStyle;rounded=0;orthogonalLoop=1;jettySize=auto;html=1;exitX=0.5;exitY=1;exitDx=0;exitDy=0;" edge="1" parent="YXJf9fg1VLiG0CaTe0pF-7" source="YXJf9fg1VLiG0CaTe0pF-8" target="YXJf9fg1VLiG0CaTe0pF-8">
          <mxGeometry relative="1" as="geometry" />
        </mxCell>
        <mxCell id="YXJf9fg1VLiG0CaTe0pF-10" value="Vídeo" style="swimlane;childLayout=stackLayout;horizontal=1;startSize=50;horizontalStack=0;rounded=1;fontSize=14;fontStyle=0;strokeWidth=2;resizeParent=0;resizeLast=1;shadow=0;dashed=0;align=center;arcSize=4;whiteSpace=wrap;html=1;" vertex="1" parent="1">
          <mxGeometry x="130" y="360" width="160" height="90" as="geometry" />
        </mxCell>
        <mxCell id="YXJf9fg1VLiG0CaTe0pF-11" value="+ resolução: corda" style="align=left;strokeColor=none;fillColor=none;spacingLeft=4;spacingRight=4;fontSize=12;verticalAlign=top;resizable=0;rotatable=0;part=1;html=1;whiteSpace=wrap;" vertex="1" parent="YXJf9fg1VLiG0CaTe0pF-10">
          <mxGeometry y="50" width="160" height="40" as="geometry" />
        </mxCell>
        <mxCell id="m5udPsK0HeP987mRyqgH-1" style="edgeStyle=orthogonalEdgeStyle;rounded=0;orthogonalLoop=1;jettySize=auto;html=1;exitX=0.5;exitY=1;exitDx=0;exitDy=0;" edge="1" parent="YXJf9fg1VLiG0CaTe0pF-10" source="YXJf9fg1VLiG0CaTe0pF-11" target="YXJf9fg1VLiG0CaTe0pF-11">
          <mxGeometry relative="1" as="geometry" />
        </mxCell>
        <mxCell id="YXJf9fg1VLiG0CaTe0pF-12" value="Musica" style="swimlane;childLayout=stackLayout;horizontal=1;startSize=40;horizontalStack=0;rounded=1;fontSize=14;fontStyle=0;strokeWidth=2;resizeParent=0;resizeLast=1;shadow=0;dashed=0;align=center;arcSize=4;whiteSpace=wrap;html=1;" vertex="1" parent="1">
          <mxGeometry x="490" y="360" width="160" height="80" as="geometry" />
        </mxCell>
        <mxCell id="YXJf9fg1VLiG0CaTe0pF-13" value="+ artista: Sting&lt;div&gt;&lt;br&gt;&lt;/div&gt;" style="align=left;strokeColor=none;fillColor=none;spacingLeft=4;spacingRight=4;fontSize=12;verticalAlign=top;resizable=0;rotatable=0;part=1;html=1;whiteSpace=wrap;" vertex="1" parent="YXJf9fg1VLiG0CaTe0pF-12">
          <mxGeometry y="40" width="160" height="40" as="geometry" />
        </mxCell>
        <mxCell id="YXJf9fg1VLiG0CaTe0pF-17" style="edgeStyle=orthogonalEdgeStyle;rounded=0;orthogonalLoop=1;jettySize=auto;html=1;exitX=0.5;exitY=1;exitDx=0;exitDy=0;entryX=0.5;entryY=0;entryDx=0;entryDy=0;" edge="1" parent="1" source="YXJf9fg1VLiG0CaTe0pF-8" target="YXJf9fg1VLiG0CaTe0pF-10">
          <mxGeometry relative="1" as="geometry" />
        </mxCell>
        <mxCell id="YXJf9fg1VLiG0CaTe0pF-18" style="edgeStyle=orthogonalEdgeStyle;rounded=0;orthogonalLoop=1;jettySize=auto;html=1;exitX=0.5;exitY=1;exitDx=0;exitDy=0;" edge="1" parent="1" source="YXJf9fg1VLiG0CaTe0pF-8" target="YXJf9fg1VLiG0CaTe0pF-12">
          <mxGeometry relative="1" as="geometry" />
        </mxCell>
      </root>
    </mxGraphModel>
  </diagram>
  <diagram id="hBD38ChDUdgtEIMLbXgW" name="Página-3">
    <mxGraphModel dx="880" dy="468" grid="1" gridSize="10" guides="1" tooltips="1" connect="1" arrows="1" fold="1" page="1" pageScale="1" pageWidth="827" pageHeight="1169" math="0" shadow="0">
      <root>
        <mxCell id="0" />
        <mxCell id="1" parent="0" />
        <mxCell id="jvpDX7MPijzmLZWfbXfh-1" value="usuário" style="whiteSpace=wrap;html=1;align=center;" vertex="1" parent="1">
          <mxGeometry x="50" y="70" width="100" height="40" as="geometry" />
        </mxCell>
        <mxCell id="jvpDX7MPijzmLZWfbXfh-2" value="Biblioteca" style="whiteSpace=wrap;html=1;align=center;" vertex="1" parent="1">
          <mxGeometry x="210" y="70" width="100" height="40" as="geometry" />
        </mxCell>
        <mxCell id="jvpDX7MPijzmLZWfbXfh-3" value="cervidor" style="whiteSpace=wrap;html=1;align=center;" vertex="1" parent="1">
          <mxGeometry x="364" y="70" width="100" height="40" as="geometry" />
        </mxCell>
        <mxCell id="jvpDX7MPijzmLZWfbXfh-4" value="play" style="whiteSpace=wrap;html=1;align=center;" vertex="1" parent="1">
          <mxGeometry x="510" y="70" width="100" height="40" as="geometry" />
        </mxCell>
        <mxCell id="jvpDX7MPijzmLZWfbXfh-5" value="" style="endArrow=none;dashed=1;html=1;dashPattern=1 3;strokeWidth=2;rounded=0;entryX=0.5;entryY=1;entryDx=0;entryDy=0;exitX=0.231;exitY=0.308;exitDx=0;exitDy=0;exitPerimeter=0;" edge="1" parent="1" source="jvpDX7MPijzmLZWfbXfh-12" target="jvpDX7MPijzmLZWfbXfh-1">
          <mxGeometry width="50" height="50" relative="1" as="geometry">
            <mxPoint x="100" y="380" as="sourcePoint" />
            <mxPoint x="125" y="180" as="targetPoint" />
          </mxGeometry>
        </mxCell>
        <mxCell id="jvpDX7MPijzmLZWfbXfh-7" value="" style="endArrow=none;dashed=1;html=1;dashPattern=1 3;strokeWidth=2;rounded=0;entryX=0.5;entryY=1;entryDx=0;entryDy=0;" edge="1" parent="1" target="jvpDX7MPijzmLZWfbXfh-2">
          <mxGeometry width="50" height="50" relative="1" as="geometry">
            <mxPoint x="260" y="400" as="sourcePoint" />
            <mxPoint x="255" y="110" as="targetPoint" />
          </mxGeometry>
        </mxCell>
        <mxCell id="jvpDX7MPijzmLZWfbXfh-9" value="" style="endArrow=none;dashed=1;html=1;dashPattern=1 3;strokeWidth=2;rounded=0;entryX=0.5;entryY=1;entryDx=0;entryDy=0;" edge="1" parent="1">
          <mxGeometry width="50" height="50" relative="1" as="geometry">
            <mxPoint x="417" y="410" as="sourcePoint" />
            <mxPoint x="411" y="110" as="targetPoint" />
          </mxGeometry>
        </mxCell>
        <mxCell id="jvpDX7MPijzmLZWfbXfh-12" value="" style="shape=partialRectangle;whiteSpace=wrap;html=1;bottom=0;right=0;fillColor=none;rotation=90;" vertex="1" parent="1">
          <mxGeometry x="10" y="320" width="130" height="130" as="geometry" />
        </mxCell>
        <mxCell id="jvpDX7MPijzmLZWfbXfh-13" value="" style="endArrow=classic;html=1;rounded=0;" edge="1" parent="1">
          <mxGeometry width="50" height="50" relative="1" as="geometry">
            <mxPoint x="100" y="160" as="sourcePoint" />
            <mxPoint x="250" y="160" as="targetPoint" />
          </mxGeometry>
        </mxCell>
        <mxCell id="jvpDX7MPijzmLZWfbXfh-14" value="" style="endArrow=classic;html=1;rounded=0;" edge="1" parent="1">
          <mxGeometry width="50" height="50" relative="1" as="geometry">
            <mxPoint x="264" y="210" as="sourcePoint" />
            <mxPoint x="414" y="210" as="targetPoint" />
          </mxGeometry>
        </mxCell>
        <mxCell id="jvpDX7MPijzmLZWfbXfh-15" value="" style="endArrow=none;dashed=1;html=1;dashPattern=1 3;strokeWidth=2;rounded=0;entryX=0.5;entryY=1;entryDx=0;entryDy=0;" edge="1" parent="1" target="jvpDX7MPijzmLZWfbXfh-4">
          <mxGeometry width="50" height="50" relative="1" as="geometry">
            <mxPoint x="560" y="420" as="sourcePoint" />
            <mxPoint x="440" y="210" as="targetPoint" />
          </mxGeometry>
        </mxCell>
        <mxCell id="jvpDX7MPijzmLZWfbXfh-16" value="" style="endArrow=classic;html=1;rounded=0;" edge="1" parent="1">
          <mxGeometry width="50" height="50" relative="1" as="geometry">
            <mxPoint x="410" y="230" as="sourcePoint" />
            <mxPoint x="560" y="230" as="targetPoint" />
          </mxGeometry>
        </mxCell>
        <mxCell id="jvpDX7MPijzmLZWfbXfh-18" value="" style="endArrow=classic;html=1;rounded=0;" edge="1" parent="1">
          <mxGeometry width="50" height="50" relative="1" as="geometry">
            <mxPoint x="554" y="280" as="sourcePoint" />
            <mxPoint x="414" y="280" as="targetPoint" />
          </mxGeometry>
        </mxCell>
        <mxCell id="jvpDX7MPijzmLZWfbXfh-19" value="" style="endArrow=classic;html=1;rounded=0;" edge="1" parent="1">
          <mxGeometry width="50" height="50" relative="1" as="geometry">
            <mxPoint x="414" y="330" as="sourcePoint" />
            <mxPoint x="564" y="330" as="targetPoint" />
          </mxGeometry>
        </mxCell>
        <mxCell id="jvpDX7MPijzmLZWfbXfh-20" value="Navegador()" style="text;html=1;align=center;verticalAlign=middle;whiteSpace=wrap;rounded=0;" vertex="1" parent="1">
          <mxGeometry x="150" y="130" width="60" height="30" as="geometry" />
        </mxCell>
        <mxCell id="jvpDX7MPijzmLZWfbXfh-21" value="Display content()" style="text;html=1;align=center;verticalAlign=middle;whiteSpace=wrap;rounded=0;" vertex="1" parent="1">
          <mxGeometry x="280" y="180" width="120" height="30" as="geometry" />
        </mxCell>
        <mxCell id="jvpDX7MPijzmLZWfbXfh-22" value="Selecione Mídia()" style="text;html=1;align=center;verticalAlign=middle;whiteSpace=wrap;rounded=0;" vertex="1" parent="1">
          <mxGeometry x="430" y="200" width="110" height="30" as="geometry" />
        </mxCell>
        <mxCell id="jvpDX7MPijzmLZWfbXfh-23" value="stream media()" style="text;html=1;align=center;verticalAlign=middle;whiteSpace=wrap;rounded=0;" vertex="1" parent="1">
          <mxGeometry x="440" y="250" width="90" height="30" as="geometry" />
        </mxCell>
        <mxCell id="jvpDX7MPijzmLZWfbXfh-24" value="Play()" style="text;html=1;align=center;verticalAlign=middle;whiteSpace=wrap;rounded=0;" vertex="1" parent="1">
          <mxGeometry x="450" y="300" width="60" height="30" as="geometry" />
        </mxCell>
      </root>
    </mxGraphModel>
  </diagram>
  <diagram id="EyFzaL6glVCSa664qXR-" name="Página-4">
    <mxGraphModel dx="880" dy="468" grid="1" gridSize="10" guides="1" tooltips="1" connect="1" arrows="1" fold="1" page="1" pageScale="1" pageWidth="827" pageHeight="1169" math="0" shadow="0">
      <root>
        <mxCell id="0" />
        <mxCell id="1" parent="0" />
        <mxCell id="wHyla0hdBh-rsQrrLRji-3" style="edgeStyle=orthogonalEdgeStyle;rounded=0;orthogonalLoop=1;jettySize=auto;html=1;exitX=0.5;exitY=1;exitDx=0;exitDy=0;entryX=0.5;entryY=0;entryDx=0;entryDy=0;" edge="1" parent="1" source="wHyla0hdBh-rsQrrLRji-1" target="wHyla0hdBh-rsQrrLRji-2">
          <mxGeometry relative="1" as="geometry" />
        </mxCell>
        <mxCell id="wHyla0hdBh-rsQrrLRji-1" value="" style="ellipse;whiteSpace=wrap;html=1;aspect=fixed;fillColor=#000000;" vertex="1" parent="1">
          <mxGeometry x="350" y="40" width="40" height="40" as="geometry" />
        </mxCell>
        <mxCell id="wHyla0hdBh-rsQrrLRji-5" style="edgeStyle=orthogonalEdgeStyle;rounded=0;orthogonalLoop=1;jettySize=auto;html=1;exitX=0.5;exitY=1;exitDx=0;exitDy=0;entryX=0.5;entryY=0;entryDx=0;entryDy=0;" edge="1" parent="1" source="wHyla0hdBh-rsQrrLRji-2" target="wHyla0hdBh-rsQrrLRji-4">
          <mxGeometry relative="1" as="geometry" />
        </mxCell>
        <mxCell id="wHyla0hdBh-rsQrrLRji-2" value="Plataforma de&amp;nbsp;&lt;div&gt;acesso&lt;/div&gt;" style="rounded=1;whiteSpace=wrap;html=1;" vertex="1" parent="1">
          <mxGeometry x="310" y="120" width="120" height="40" as="geometry" />
        </mxCell>
        <mxCell id="wHyla0hdBh-rsQrrLRji-9" style="edgeStyle=orthogonalEdgeStyle;rounded=0;orthogonalLoop=1;jettySize=auto;html=1;exitX=0.5;exitY=1;exitDx=0;exitDy=0;entryX=0.5;entryY=0;entryDx=0;entryDy=0;" edge="1" parent="1" source="wHyla0hdBh-rsQrrLRji-4" target="wHyla0hdBh-rsQrrLRji-8">
          <mxGeometry relative="1" as="geometry" />
        </mxCell>
        <mxCell id="wHyla0hdBh-rsQrrLRji-4" value="Navegar na Biblioteca" style="rounded=1;whiteSpace=wrap;html=1;" vertex="1" parent="1">
          <mxGeometry x="305" y="210" width="130" height="40" as="geometry" />
        </mxCell>
        <mxCell id="wHyla0hdBh-rsQrrLRji-6" value="Trasmitir Vídeo" style="rounded=1;whiteSpace=wrap;html=1;" vertex="1" parent="1">
          <mxGeometry x="460" y="305" width="116" height="40" as="geometry" />
        </mxCell>
        <mxCell id="wHyla0hdBh-rsQrrLRji-12" style="edgeStyle=orthogonalEdgeStyle;rounded=0;orthogonalLoop=1;jettySize=auto;html=1;exitX=0.5;exitY=1;exitDx=0;exitDy=0;" edge="1" parent="1" source="wHyla0hdBh-rsQrrLRji-7" target="wHyla0hdBh-rsQrrLRji-14">
          <mxGeometry relative="1" as="geometry">
            <mxPoint x="370" y="550" as="targetPoint" />
          </mxGeometry>
        </mxCell>
        <mxCell id="wHyla0hdBh-rsQrrLRji-7" value="Transmitir Musica" style="rounded=1;whiteSpace=wrap;html=1;" vertex="1" parent="1">
          <mxGeometry x="307.5" y="430" width="125" height="40" as="geometry" />
        </mxCell>
        <mxCell id="wHyla0hdBh-rsQrrLRji-10" style="edgeStyle=orthogonalEdgeStyle;rounded=0;orthogonalLoop=1;jettySize=auto;html=1;exitX=1;exitY=0.5;exitDx=0;exitDy=0;entryX=0;entryY=0.5;entryDx=0;entryDy=0;" edge="1" parent="1" source="wHyla0hdBh-rsQrrLRji-8" target="wHyla0hdBh-rsQrrLRji-6">
          <mxGeometry relative="1" as="geometry" />
        </mxCell>
        <mxCell id="wHyla0hdBh-rsQrrLRji-11" style="edgeStyle=orthogonalEdgeStyle;rounded=0;orthogonalLoop=1;jettySize=auto;html=1;exitX=0.5;exitY=1;exitDx=0;exitDy=0;entryX=0.5;entryY=0;entryDx=0;entryDy=0;" edge="1" parent="1" source="wHyla0hdBh-rsQrrLRji-8" target="wHyla0hdBh-rsQrrLRji-7">
          <mxGeometry relative="1" as="geometry" />
        </mxCell>
        <mxCell id="wHyla0hdBh-rsQrrLRji-8" value="Selecionar o&lt;div&gt;conteúdo&lt;/div&gt;" style="rhombus;whiteSpace=wrap;html=1;" vertex="1" parent="1">
          <mxGeometry x="316" y="280" width="108" height="90" as="geometry" />
        </mxCell>
        <mxCell id="wHyla0hdBh-rsQrrLRji-14" value="" style="ellipse;html=1;shape=endState;fillColor=#000000;strokeColor=#000000;" vertex="1" parent="1">
          <mxGeometry x="346.25" y="510" width="47.5" height="45" as="geometry" />
        </mxCell>
      </root>
    </mxGraphModel>
  </diagram>
  <diagram id="aC6r9C530GtcWRrZf-TF" name="Página-6">
    <mxGraphModel dx="880" dy="468" grid="1" gridSize="10" guides="1" tooltips="1" connect="1" arrows="1" fold="1" page="1" pageScale="1" pageWidth="827" pageHeight="1169" math="0" shadow="0">
      <root>
        <mxCell id="0" />
        <mxCell id="1" parent="0" />
        <mxCell id="zYgi4Muy-OTLrAH7Fp9f-5" style="edgeStyle=orthogonalEdgeStyle;rounded=0;orthogonalLoop=1;jettySize=auto;html=1;exitX=0.5;exitY=1;exitDx=0;exitDy=0;entryX=0.5;entryY=0;entryDx=0;entryDy=0;" parent="1" source="zYgi4Muy-OTLrAH7Fp9f-3" target="zYgi4Muy-OTLrAH7Fp9f-4" edge="1">
          <mxGeometry relative="1" as="geometry" />
        </mxCell>
        <mxCell id="zYgi4Muy-OTLrAH7Fp9f-3" value="" style="ellipse;whiteSpace=wrap;html=1;aspect=fixed;fillColor=#000000;" parent="1" vertex="1">
          <mxGeometry x="364" y="50" width="40" height="40" as="geometry" />
        </mxCell>
        <mxCell id="zYgi4Muy-OTLrAH7Fp9f-11" style="edgeStyle=orthogonalEdgeStyle;rounded=0;orthogonalLoop=1;jettySize=auto;html=1;exitX=0.5;exitY=1;exitDx=0;exitDy=0;entryX=0.5;entryY=0;entryDx=0;entryDy=0;" parent="1" source="zYgi4Muy-OTLrAH7Fp9f-4" target="zYgi4Muy-OTLrAH7Fp9f-6" edge="1">
          <mxGeometry relative="1" as="geometry" />
        </mxCell>
        <mxCell id="zYgi4Muy-OTLrAH7Fp9f-4" value="stopped" style="rounded=1;whiteSpace=wrap;html=1;" parent="1" vertex="1">
          <mxGeometry x="329" y="120" width="110" height="40" as="geometry" />
        </mxCell>
        <mxCell id="zYgi4Muy-OTLrAH7Fp9f-12" style="edgeStyle=orthogonalEdgeStyle;rounded=0;orthogonalLoop=1;jettySize=auto;html=1;exitX=0.5;exitY=1;exitDx=0;exitDy=0;entryX=0.5;entryY=0;entryDx=0;entryDy=0;" parent="1" source="zYgi4Muy-OTLrAH7Fp9f-6" target="zYgi4Muy-OTLrAH7Fp9f-7" edge="1">
          <mxGeometry relative="1" as="geometry" />
        </mxCell>
        <mxCell id="zYgi4Muy-OTLrAH7Fp9f-6" value="Buff" style="rounded=1;whiteSpace=wrap;html=1;" parent="1" vertex="1">
          <mxGeometry x="330" y="190" width="110" height="30" as="geometry" />
        </mxCell>
        <mxCell id="zYgi4Muy-OTLrAH7Fp9f-13" style="edgeStyle=orthogonalEdgeStyle;rounded=0;orthogonalLoop=1;jettySize=auto;html=1;exitX=0.5;exitY=1;exitDx=0;exitDy=0;entryX=0.5;entryY=0;entryDx=0;entryDy=0;" parent="1" source="zYgi4Muy-OTLrAH7Fp9f-7" target="zYgi4Muy-OTLrAH7Fp9f-8" edge="1">
          <mxGeometry relative="1" as="geometry" />
        </mxCell>
        <mxCell id="zYgi4Muy-OTLrAH7Fp9f-17" style="edgeStyle=orthogonalEdgeStyle;rounded=0;orthogonalLoop=1;jettySize=auto;html=1;exitX=1;exitY=0.5;exitDx=0;exitDy=0;entryX=0;entryY=0.75;entryDx=0;entryDy=0;" parent="1" source="zYgi4Muy-OTLrAH7Fp9f-7" target="zYgi4Muy-OTLrAH7Fp9f-7" edge="1">
          <mxGeometry relative="1" as="geometry">
            <mxPoint x="320" y="280" as="targetPoint" />
            <Array as="points">
              <mxPoint x="500" y="275" />
              <mxPoint x="500" y="410" />
              <mxPoint x="280" y="410" />
              <mxPoint x="280" y="281" />
              <mxPoint x="330" y="281" />
            </Array>
          </mxGeometry>
        </mxCell>
        <mxCell id="zYgi4Muy-OTLrAH7Fp9f-7" value="playing" style="rounded=1;whiteSpace=wrap;html=1;" parent="1" vertex="1">
          <mxGeometry x="330" y="260" width="110" height="30" as="geometry" />
        </mxCell>
        <mxCell id="zYgi4Muy-OTLrAH7Fp9f-14" style="edgeStyle=orthogonalEdgeStyle;rounded=0;orthogonalLoop=1;jettySize=auto;html=1;exitX=0.5;exitY=1;exitDx=0;exitDy=0;entryX=0.5;entryY=0;entryDx=0;entryDy=0;" parent="1" source="zYgi4Muy-OTLrAH7Fp9f-8" target="zYgi4Muy-OTLrAH7Fp9f-9" edge="1">
          <mxGeometry relative="1" as="geometry" />
        </mxCell>
        <mxCell id="zYgi4Muy-OTLrAH7Fp9f-8" value="Pausing" style="rounded=1;whiteSpace=wrap;html=1;" parent="1" vertex="1">
          <mxGeometry x="330" y="340" width="110" height="30" as="geometry" />
        </mxCell>
        <mxCell id="zYgi4Muy-OTLrAH7Fp9f-9" value="Video/music content" style="whiteSpace=wrap;html=1;rounded=1;arcSize=50;align=center;verticalAlign=middle;strokeWidth=1;autosize=1;spacing=4;treeFolding=1;treeMoving=1;newEdgeStyle={&quot;edgeStyle&quot;:&quot;entityRelationEdgeStyle&quot;,&quot;startArrow&quot;:&quot;none&quot;,&quot;endArrow&quot;:&quot;none&quot;,&quot;segment&quot;:10,&quot;curved&quot;:1,&quot;sourcePerimeterSpacing&quot;:0,&quot;targetPerimeterSpacing&quot;:0};" parent="1" vertex="1">
          <mxGeometry x="310" y="451" width="150" height="30" as="geometry" />
        </mxCell>
        <mxCell id="zYgi4Muy-OTLrAH7Fp9f-16" value="" style="endArrow=classic;html=1;rounded=0;exitX=0.5;exitY=1;exitDx=0;exitDy=0;" parent="1" source="zYgi4Muy-OTLrAH7Fp9f-9" edge="1">
          <mxGeometry width="50" height="50" relative="1" as="geometry">
            <mxPoint x="640" y="370" as="sourcePoint" />
            <mxPoint x="385" y="510" as="targetPoint" />
          </mxGeometry>
        </mxCell>
      </root>
    </mxGraphModel>
  </diagram>
</mxfile>
